<svg width="19" height="31" viewBox="0 0 19 31" fill="none" xmlns="http://www.w3.org/2000/svg">
    <g clip-path="url(#clip0_24_710)">
    <path d="M3.58824 24.1352C3.72663 21.1134 2.73386 18.535 0.60791 16.4001L9.10367 1.34802M14.6472 24.1352C14.5088 21.1134 15.5026 18.535 17.6275 16.4001L9.13175 1.34802M9.15783 1.63946V14.9371M3.61633 24.6193H14.6472V30.4287H3.61633V24.6193Z" stroke="white"/>
    <path d="M10.6359 16.3893C10.6359 15.5872 9.96241 14.937 9.13167 14.937C8.30093 14.937 7.62744 15.5872 7.62744 16.3893C7.62744 17.1914 8.30093 17.8417 9.13167 17.8417C9.96241 17.8417 10.6359 17.1914 10.6359 16.3893Z" stroke="white"/>
    <path d="M9.46333 1.95598L9.12136 1.32373L8.75635 1.95598" stroke="white" stroke-width="1.5"/>
    </g>
    <defs>
    <clipPath id="clip0_24_710">
    <rect width="18.2353" height="31" fill="white"/>
    </clipPath>
    </defs>
    </svg>
    