<svg width="37" height="37" viewBox="0 0 37 37" fill="none" xmlns="http://www.w3.org/2000/svg">
    <path d="M0 18.5C0 13.5935 1.9491 8.88795 5.41852 5.41852C8.88795 1.9491 13.5935 0 18.5 0C23.4065 0 28.1121 1.9491 31.5815 5.41852C35.0509 8.88795 37 13.5935 37 18.5C37 23.4065 35.0509 28.1121 31.5815 31.5815C28.1121 35.0509 23.4065 37 18.5 37C13.5935 37 8.88795 35.0509 5.41852 31.5815C1.9491 28.1121 0 23.4065 0 18.5ZM17.3438 2.49056C15.7944 2.96231 14.2566 4.38681 12.9801 6.78025C12.6494 7.4 12.3418 8.07525 12.0666 8.79675C13.6969 9.15981 15.4706 9.39106 17.3438 9.46044V2.49056ZM9.82581 8.18394C10.1542 7.29594 10.5288 6.46344 10.9381 5.69106C11.338 4.935 11.7997 4.21335 12.3187 3.5335C10.35 4.34935 8.56145 5.54537 7.05544 7.05313C7.89256 7.47863 8.81987 7.86019 9.82581 8.18625V8.18394ZM8.11456 17.3438C8.19781 14.8694 8.54931 12.5176 9.12281 10.3878C7.87105 9.98744 6.65943 9.47105 5.50375 8.84531C3.66195 11.3182 2.56877 14.2678 2.35413 17.3438H8.11225H8.11456ZM11.3521 11.0052C10.8069 13.0766 10.4966 15.2029 10.4271 17.3438H17.3438V11.7729C15.2394 11.7036 13.2206 11.4376 11.3521 11.0052ZM19.6563 11.7706V17.3438H26.5706C26.5019 15.203 26.1924 13.0767 25.6479 11.0052C23.7794 11.4376 21.7606 11.7013 19.6563 11.7729V11.7706ZM10.4294 19.6563C10.5103 21.9387 10.8364 24.0824 11.3521 25.9948C13.3201 25.5482 15.3266 25.2919 17.3438 25.2294V19.6563H10.4294ZM19.6563 19.6563V25.2271C21.7606 25.2964 23.7794 25.5624 25.6479 25.9948C26.1636 24.0824 26.4897 21.9387 26.5729 19.6563H19.6563ZM12.0666 28.2033C12.3441 28.9248 12.6494 29.6 12.9801 30.2197C14.2566 32.6132 15.7967 34.0354 17.3438 34.5094V27.5419C15.4706 27.6112 13.6969 27.8425 12.0666 28.2056V28.2033ZM12.321 33.4665C11.8012 32.7868 11.3387 32.0651 10.9381 31.3089C10.5122 30.5029 10.1406 29.6693 9.82581 28.8137C8.87452 29.1195 7.9483 29.4983 7.05544 29.9469C8.56145 31.4546 10.35 32.6507 12.3187 33.4665H12.321ZM9.12281 26.6123C8.52243 24.3396 8.18338 22.0058 8.11225 19.6563H2.35413C2.56865 22.7322 3.66183 25.6819 5.50375 28.1547C6.59063 27.5581 7.80469 27.0401 9.12281 26.6123ZM24.6813 33.4665C26.649 32.6511 28.4367 31.4559 29.9422 29.9492C29.0501 29.5007 28.1247 29.1219 27.1742 28.8161C26.8593 29.6708 26.4877 30.5037 26.0619 31.3089C25.6621 32.0651 25.2004 32.7867 24.6813 33.4665ZM19.6563 27.5396V34.5094C21.2056 34.0377 22.7434 32.6132 24.0199 30.2197C24.3506 29.6 24.6582 28.9248 24.9334 28.2033C23.1981 27.8228 21.4317 27.6014 19.6563 27.5419V27.5396ZM27.8772 26.6123C29.1953 27.0401 30.4094 27.5581 31.4962 28.1547C33.3382 25.6819 34.4314 22.7322 34.6459 19.6563H28.8877C28.8166 22.0058 28.4776 24.3396 27.8772 26.6123ZM34.6459 17.3438C34.4314 14.2678 33.3382 11.3181 31.4962 8.84531C30.4094 9.44194 29.1953 9.95994 27.8772 10.3878C28.4507 12.5153 28.8022 14.8694 28.8877 17.3438H34.6459ZM26.0619 5.69106C26.4712 6.46344 26.8458 7.29594 27.1765 8.18394C28.1263 7.8781 29.0509 7.49926 29.9422 7.05081C28.4365 5.54497 26.6488 4.35055 24.6813 3.53581C25.1854 4.19025 25.6479 4.91637 26.0619 5.69106ZM24.9334 8.79675C24.6707 8.10644 24.3656 7.43299 24.0199 6.78025C22.7434 4.38681 21.2056 2.96463 19.6563 2.49056V9.45813C21.5294 9.38875 23.3031 9.1575 24.9334 8.79444V8.79675Z" fill="#F9F9F9"/>
    </svg>
    