<svg xmlns="http://www.w3.org/2000/svg" className="marker" width="65" height="64" viewBox="0 0 65 64" fill="none">
    <g clip-path="url(#clip0_54_123)">
    <path d="M48.2256 0H17.33C8.18851 0 0.777832 7.41067 0.777832 16.5522V47.4478C0.777832 56.5893 8.18851 64 17.33 64H48.2256C57.3672 64 64.7778 56.5893 64.7778 47.4478V16.5522C64.7778 7.41067 57.3672 0 48.2256 0Z" fill="#f9f9f9"/>
    </g>
    <path d="M42.5791 32.1542C42.5791 30.0124 41.433 28.1382 39.7207 27.1116" stroke="#0b0c11" stroke-width="1.5888" stroke-linecap="round"/>
    <path d="M22.7463 32.1542C22.7463 30.0124 23.8924 28.1382 25.6047 27.1116" stroke="#0b0c11" stroke-width="1.5888" stroke-linecap="round"/>
    <path d="M29.4205 42.1731C31.5694 43.4137 34.1136 43.3495 36.1355 42.2262" stroke="#0b0c11" stroke-width="1.5888" stroke-linecap="round"/>
    <path d="M22.2655 45.4741C25.4896 45.4741 28.1033 42.8604 28.1033 39.6363C28.1033 36.4122 25.4896 33.7986 22.2655 33.7986C19.0414 33.7986 16.4277 36.4122 16.4277 39.6363C16.4277 42.8604 19.0414 45.4741 22.2655 45.4741Z" fill="#0b0c11"/>
    <path d="M43.2887 45.4741C46.5128 45.4741 49.1264 42.8604 49.1264 39.6363C49.1264 36.4122 46.5128 33.7986 43.2887 33.7986C40.0646 33.7986 37.4509 36.4122 37.4509 39.6363C37.4509 42.8604 40.0646 45.4741 43.2887 45.4741Z" fill="#0b0c11"/>
    <path d="M32.7779 30.1338C36.002 30.1338 38.6156 27.5201 38.6156 24.296C38.6156 21.0719 36.002 18.4583 32.7779 18.4583C29.5538 18.4583 26.9401 21.0719 26.9401 24.296C26.9401 27.5201 29.5538 30.1338 32.7779 30.1338Z" fill="#0b0c11"/>
    <defs>
    <clipPath id="clip0_54_123">
    <rect width="65" height="64" fill="#0b0c11"/>
    </clipPath>
    </defs>
    </svg>