<svg width="11" height="11" viewBox="0 0 11 11" fill="none" xmlns="http://www.w3.org/2000/svg">
    <path d="M9.96875 1.71875H1.03125C0.841113 1.71875 0.6875 1.87236 0.6875 2.0625V8.9375C0.6875 9.12764 0.841113 9.28125 1.03125 9.28125H9.96875C10.1589 9.28125 10.3125 9.12764 10.3125 8.9375V2.0625C10.3125 1.87236 10.1589 1.71875 9.96875 1.71875ZM9.53906 2.90898V8.50781H1.46094V2.90898L1.16445 2.67803L1.58662 2.13555L2.04639 2.49326H8.95469L9.41445 2.13555L9.83662 2.67803L9.53906 2.90898ZM8.95469 2.49219L5.5 5.17773L2.04531 2.49219L1.58555 2.13447L1.16338 2.67695L1.45986 2.90791L5.12939 5.76103C5.23492 5.84302 5.36475 5.88753 5.49839 5.88753C5.63202 5.88753 5.76185 5.84302 5.86738 5.76103L9.53906 2.90898L9.83555 2.67803L9.41338 2.13555L8.95469 2.49219Z" fill="#fff"/>
    </svg>
    